# Blender v3.0.0 OBJ File: 'hologram.blend'
# www.blender.org
mtllib hologram.mtl
o Cube_Cube.001
v -1.000000 -0.000000 1.000000
v -1.000000 0.200000 1.000000
v -1.000000 -0.000000 -1.000000
v -1.000000 0.200000 -1.000000
v 1.000000 -0.000000 1.000000
v 1.000000 0.200000 1.000000
v 1.000000 -0.000000 -1.000000
v 1.000000 0.200000 -1.000000
vt 0.375000 0.000000
vt 0.625000 0.000000
vt 0.625000 0.250000
vt 0.375000 0.250000
vt 0.625000 0.500000
vt 0.375000 0.500000
vt 0.625000 0.750000
vt 0.375000 0.750000
vt 0.625000 1.000000
vt 0.375000 1.000000
vt 0.125000 0.500000
vt 0.125000 0.750000
vt 0.875000 0.500000
vt 0.875000 0.750000
vn -1.0000 0.0000 0.0000
vn 0.0000 0.0000 -1.0000
vn 1.0000 0.0000 0.0000
vn 0.0000 0.0000 1.0000
vn 0.0000 -1.0000 0.0000
vn 0.0000 1.0000 0.0000
usemtl Base
s off
f 1/1/1 2/2/1 4/3/1 3/4/1
f 3/4/2 4/3/2 8/5/2 7/6/2
f 7/6/3 8/5/3 6/7/3 5/8/3
f 5/8/4 6/7/4 2/9/4 1/10/4
f 3/11/5 7/6/5 5/8/5 1/12/5
f 8/5/6 4/13/6 2/14/6 6/7/6
o Plane
v -0.130001 0.851386 0.045914
v 0.130001 0.851386 0.045914
v -0.130001 0.851386 -0.639126
v 0.130001 0.851386 -0.639126
v -0.330800 0.851386 0.045914
v 0.330800 0.851386 0.045914
v 0.000000 0.851386 0.544825
v -0.130001 0.714378 0.045914
v 0.130001 0.714378 0.045914
v -0.130001 0.714378 -0.639126
v 0.130001 0.714378 -0.639126
v -0.330800 0.714378 0.045914
v 0.330800 0.714378 0.045914
v 0.000000 0.714378 0.544825
vt 0.000000 0.000000
vt 1.000000 0.000000
vt 1.000000 1.000000
vt 0.000000 1.000000
vt 0.000000 0.000000
vt 1.000000 0.000000
vt 1.000000 0.000000
vt 0.000000 0.000000
vt 0.000000 1.000000
vt 1.000000 1.000000
vt 1.000000 0.000000
vt 1.000000 0.000000
vt 0.000000 0.000000
vt 1.000000 0.000000
vn 0.0000 1.0000 0.0000
vn 0.0000 -1.0000 0.0000
vn 0.0000 -0.5686 0.8226
vn -1.0000 0.0000 0.0000
vn 1.0000 0.0000 0.0000
vn 0.0000 0.0000 -1.0000
vn -0.8334 0.0000 0.5526
vn 0.8334 0.0000 0.5526
usemtl Arrow
s off
f 9/15/7 10/16/7 12/17/7 11/18/7
f 10/16/7 9/15/7 13/19/7 14/20/7
f 14/20/7 13/19/7 15/21/7
f 16/22/8 18/23/8 19/24/8 17/25/8
f 17/25/9 21/26/9 20/27/9 16/22/9
f 21/26/8 22/28/8 20/27/8
f 9/15/10 11/18/10 18/23/10 16/22/10
f 12/17/11 10/16/11 17/25/11 19/24/11
f 11/18/12 12/17/12 19/24/12 18/23/12
f 13/19/12 9/15/12 16/22/12 20/27/12
f 10/16/12 14/20/12 21/26/12 17/25/12
f 15/21/13 13/19/13 20/27/13 22/28/13
f 14/20/14 15/21/14 22/28/14 21/26/14
