# Blender v3.0.0 OBJ File: ''
# www.blender.org
mtllib transportbelt.mtl
o Cube_Cube.001
v -1.000000 -0.200000 1.000000
v -1.000000 0.200000 1.000000
v -1.000000 -0.200000 -1.000000
v -1.000000 0.200000 -1.000000
v 1.000000 -0.200000 1.000000
v 1.000000 0.200000 1.000000
v 1.000000 -0.200000 -1.000000
v 1.000000 0.200000 -1.000000
vt 0.375000 0.000000
vt 0.625000 0.000000
vt 0.625000 0.250000
vt 0.375000 0.250000
vt 0.625000 0.500000
vt 0.375000 0.500000
vt 0.625000 0.750000
vt 0.375000 0.750000
vt 0.625000 1.000000
vt 0.375000 1.000000
vt 0.125000 0.500000
vt 0.125000 0.750000
vt 0.875000 0.500000
vt 0.875000 0.750000
vn -1.0000 0.0000 0.0000
vn 0.0000 0.0000 -1.0000
vn 1.0000 0.0000 0.0000
vn 0.0000 0.0000 1.0000
vn 0.0000 -1.0000 0.0000
vn 0.0000 1.0000 0.0000
usemtl None
s off
f 1/1/1 2/2/1 4/3/1 3/4/1
f 3/4/2 4/3/2 8/5/2 7/6/2
f 7/6/3 8/5/3 6/7/3 5/8/3
f 5/8/4 6/7/4 2/9/4 1/10/4
f 3/11/5 7/6/5 5/8/5 1/12/5
f 8/5/6 4/13/6 2/14/6 6/7/6
o Cone
v 0.000000 0.300000 -0.500000
v 0.097545 0.298079 -0.500000
v 0.191342 0.292388 -0.500000
v 0.277785 0.283147 -0.500000
v 0.353553 0.270711 -0.500000
v 0.415735 0.255557 -0.500000
v 0.461940 0.238268 -0.500000
v 0.490393 0.219509 -0.500000
v 0.500000 0.200000 -0.500000
v 0.490393 0.180491 -0.500000
v 0.461940 0.161732 -0.500000
v 0.415735 0.144443 -0.500000
v 0.353553 0.129289 -0.500000
v 0.277785 0.116853 -0.500000
v 0.191342 0.107612 -0.500000
v 0.097545 0.101921 -0.500000
v -0.000000 0.100000 -0.500000
v -0.097545 0.101921 -0.500000
v -0.191342 0.107612 -0.500000
v -0.277785 0.116853 -0.500000
v -0.353553 0.129289 -0.500000
v -0.415735 0.144443 -0.500000
v -0.461940 0.161732 -0.500000
v -0.490393 0.180491 -0.500000
v -0.500000 0.200000 -0.500000
v -0.490393 0.219509 -0.500000
v -0.461940 0.238268 -0.500000
v -0.415735 0.255557 -0.500000
v -0.353553 0.270711 -0.500000
v -0.277785 0.283147 -0.500000
v -0.191342 0.292388 -0.500000
v -0.097545 0.298079 -0.500000
v 0.000000 0.200000 0.500000
vt 0.250000 0.490000
vt 0.250000 0.250000
vt 0.296822 0.485388
vt 0.341844 0.471731
vt 0.383337 0.449553
vt 0.419706 0.419706
vt 0.449553 0.383337
vt 0.471731 0.341844
vt 0.485388 0.296822
vt 0.490000 0.250000
vt 0.485388 0.203178
vt 0.471731 0.158156
vt 0.449553 0.116663
vt 0.419706 0.080294
vt 0.383337 0.050447
vt 0.341844 0.028269
vt 0.296822 0.014612
vt 0.250000 0.010000
vt 0.203178 0.014612
vt 0.158156 0.028269
vt 0.116663 0.050447
vt 0.080294 0.080294
vt 0.050447 0.116663
vt 0.028269 0.158156
vt 0.014612 0.203178
vt 0.010000 0.250000
vt 0.014612 0.296822
vt 0.028269 0.341844
vt 0.050447 0.383337
vt 0.080294 0.419706
vt 0.116663 0.449553
vt 0.158156 0.471731
vt 0.750000 0.490000
vt 0.796822 0.485388
vt 0.841844 0.471731
vt 0.883337 0.449553
vt 0.919706 0.419706
vt 0.949553 0.383337
vt 0.971731 0.341844
vt 0.985388 0.296822
vt 0.990000 0.250000
vt 0.985388 0.203178
vt 0.971731 0.158156
vt 0.949553 0.116663
vt 0.919706 0.080294
vt 0.883337 0.050447
vt 0.841844 0.028269
vt 0.796822 0.014612
vt 0.750000 0.010000
vt 0.703178 0.014612
vt 0.658156 0.028269
vt 0.616663 0.050447
vt 0.580294 0.080294
vt 0.550447 0.116663
vt 0.528269 0.158156
vt 0.514612 0.203178
vt 0.510000 0.250000
vt 0.514612 0.296822
vt 0.528269 0.341844
vt 0.550447 0.383337
vt 0.580294 0.419706
vt 0.616663 0.449553
vt 0.658156 0.471731
vt 0.703178 0.485388
vt 0.203178 0.485388
vn 0.0196 0.9948 0.0995
vn 0.0602 0.9928 0.1033
vn 0.1056 0.9881 0.1115
vn 0.1607 0.9789 0.1260
vn 0.2341 0.9605 0.1507
vn 0.3438 0.9188 0.1940
vn 0.5292 0.8026 0.2752
vn 0.8185 0.4031 0.4093
vn 0.8185 -0.4031 0.4093
vn 0.5292 -0.8026 0.2752
vn 0.3438 -0.9188 0.1940
vn 0.2341 -0.9605 0.1507
vn 0.1607 -0.9789 0.1260
vn 0.1056 -0.9881 0.1115
vn 0.0602 -0.9928 0.1033
vn 0.0196 -0.9948 0.0995
vn -0.0196 -0.9948 0.0995
vn -0.0602 -0.9928 0.1033
vn -0.1056 -0.9881 0.1115
vn -0.1607 -0.9789 0.1260
vn -0.2341 -0.9605 0.1507
vn -0.3438 -0.9188 0.1940
vn -0.5292 -0.8026 0.2752
vn -0.8185 -0.4031 0.4093
vn -0.8185 0.4031 0.4093
vn -0.5292 0.8026 0.2752
vn -0.3438 0.9188 0.1940
vn -0.2341 0.9605 0.1507
vn -0.1607 0.9789 0.1260
vn -0.1056 0.9881 0.1115
vn -0.0000 0.0000 -1.0000
vn -0.0602 0.9928 0.1033
vn -0.0196 0.9948 0.0995
usemtl None
s off
f 9/15/7 41/16/7 10/17/7
f 10/17/8 41/16/8 11/18/8
f 11/18/9 41/16/9 12/19/9
f 12/19/10 41/16/10 13/20/10
f 13/20/11 41/16/11 14/21/11
f 14/21/12 41/16/12 15/22/12
f 15/22/13 41/16/13 16/23/13
f 16/23/14 41/16/14 17/24/14
f 17/24/15 41/16/15 18/25/15
f 18/25/16 41/16/16 19/26/16
f 19/26/17 41/16/17 20/27/17
f 20/27/18 41/16/18 21/28/18
f 21/28/19 41/16/19 22/29/19
f 22/29/20 41/16/20 23/30/20
f 23/30/21 41/16/21 24/31/21
f 24/31/22 41/16/22 25/32/22
f 25/32/23 41/16/23 26/33/23
f 26/33/24 41/16/24 27/34/24
f 27/34/25 41/16/25 28/35/25
f 28/35/26 41/16/26 29/36/26
f 29/36/27 41/16/27 30/37/27
f 30/37/28 41/16/28 31/38/28
f 31/38/29 41/16/29 32/39/29
f 32/39/30 41/16/30 33/40/30
f 33/40/31 41/16/31 34/41/31
f 34/41/32 41/16/32 35/42/32
f 35/42/33 41/16/33 36/43/33
f 36/43/34 41/16/34 37/44/34
f 37/44/35 41/16/35 38/45/35
f 38/45/36 41/16/36 39/46/36
f 9/47/37 10/48/37 11/49/37 12/50/37 13/51/37 14/52/37 15/53/37 16/54/37 17/55/37 18/56/37 19/57/37 20/58/37 21/59/37 22/60/37 23/61/37 24/62/37 25/63/37 26/64/37 27/65/37 28/66/37 29/67/37 30/68/37 31/69/37 32/70/37 33/71/37 34/72/37 35/73/37 36/74/37 37/75/37 38/76/37 39/77/37 40/78/37
f 39/46/38 41/16/38 40/79/38
f 40/79/39 41/16/39 9/15/39
