# Blender v3.0.0 OBJ File: 'transportbelt2.blend'
# www.blender.org
mtllib transportbelt2.mtl
o Cube_Cube.001
v -32.000000 -0.029893 32.000000
v -32.000000 6.370108 32.000000
v -32.000000 6.370118 -32.000000
v -32.000000 -0.029882 -32.000000
v 32.000000 6.370118 -32.000000
v 32.000000 -0.029882 -32.000000
v 32.000000 6.370108 32.000000
v 32.000000 -0.029893 32.000000
vt 0.375000 0.000000
vt 0.625000 0.000000
vt 0.625000 0.250000
vt 0.375000 0.250000
vt 0.625000 0.500000
vt 0.375000 0.500000
vt 0.625000 0.750000
vt 0.375000 0.750000
vt 0.625000 1.000000
vt 0.375000 1.000000
vt 0.125000 0.500000
vt 0.125000 0.750000
vt 0.875000 0.500000
vt 0.875000 0.750000
vn -1.0000 0.0000 0.0000
vn 0.0000 0.0000 -1.0000
vn 1.0000 0.0000 0.0000
vn 0.0000 0.0000 1.0000
vn 0.0000 -1.0000 -0.0000
vn 0.0000 1.0000 0.0000
usemtl Belt
s 1
f 1/1/1 2/2/1 3/3/1 4/4/1
f 4/4/2 3/3/2 5/5/2 6/6/2
f 6/6/3 5/5/3 7/7/3 8/8/3
f 8/8/4 7/7/4 2/9/4 1/10/4
f 4/11/5 6/6/5 8/8/5 1/12/5
f 5/5/6 3/13/6 2/14/6 7/7/6
o Plane
v 11.597475 7.074565 30.654968
v 6.597475 7.074565 20.654968
v 16.597475 7.074565 20.654968
v 11.597475 7.074565 20.654968
v 6.597475 7.074565 10.654968
v 16.597475 7.074565 10.654968
v 11.597475 7.074565 10.654968
v 6.597475 7.074565 0.654968
v 16.597475 7.074565 0.654968
v 11.597475 7.074565 0.654968
v 6.597475 7.074565 -9.345032
v 16.597475 7.074565 -9.345032
v 11.597475 7.074565 -9.345032
v 6.597475 7.074565 -19.345032
v 16.597475 7.074565 -19.345032
v 11.597475 7.074565 -19.345032
v 6.597475 7.074565 -29.345032
v 16.597475 7.074565 -29.345032
v -11.597475 7.074565 30.654968
v -6.597475 7.074565 20.654968
v -16.597475 7.074565 20.654968
v -11.597475 7.074565 20.654968
v -6.597475 7.074565 10.654968
v -16.597475 7.074565 10.654968
v -11.597475 7.074565 10.654968
v -6.597475 7.074565 0.654968
v -16.597475 7.074565 0.654968
v -11.597475 7.074565 0.654968
v -6.597475 7.074565 -9.345032
v -16.597475 7.074565 -9.345032
v -11.597475 7.074565 -9.345032
v -6.597475 7.074565 -19.345032
v -16.597475 7.074565 -19.345032
v -11.597475 7.074565 -19.345032
v -6.597475 7.074565 -29.345032
v -16.597475 7.074565 -29.345032
vt 1.000000 0.000000
vt 1.000000 1.000000
vt 0.000000 1.000000
vt 1.000000 0.000000
vt 1.000000 1.000000
vt 0.000000 1.000000
vt 1.000000 0.000000
vt 1.000000 1.000000
vt 0.000000 1.000000
vt 1.000000 0.000000
vt 1.000000 1.000000
vt 0.000000 1.000000
vt 1.000000 0.000000
vt 1.000000 1.000000
vt 0.000000 1.000000
vt 1.000000 0.000000
vt 1.000000 1.000000
vt 0.000000 1.000000
vt 1.000000 0.000000
vt 0.000000 1.000000
vt 1.000000 1.000000
vt 1.000000 0.000000
vt 0.000000 1.000000
vt 1.000000 1.000000
vt 1.000000 0.000000
vt 0.000000 1.000000
vt 1.000000 1.000000
vt 1.000000 0.000000
vt 0.000000 1.000000
vt 1.000000 1.000000
vt 1.000000 0.000000
vt 0.000000 1.000000
vt 1.000000 1.000000
vt 1.000000 0.000000
vt 0.000000 1.000000
vt 1.000000 1.000000
vn 0.0000 1.0000 0.0000
usemtl Arrows
s off
f 9/15/7 11/16/7 10/17/7
f 12/18/7 14/19/7 13/20/7
f 15/21/7 17/22/7 16/23/7
f 18/24/7 20/25/7 19/26/7
f 21/27/7 23/28/7 22/29/7
f 24/30/7 26/31/7 25/32/7
f 27/33/7 28/34/7 29/35/7
f 30/36/7 31/37/7 32/38/7
f 33/39/7 34/40/7 35/41/7
f 36/42/7 37/43/7 38/44/7
f 39/45/7 40/46/7 41/47/7
f 42/48/7 43/49/7 44/50/7
